<svg width="149" height="48" viewBox="0 0 149 48" fill="none" xmlns="http://www.w3.org/2000/svg">
<path d="M140.368 26.0696H135.975L134.679 15.6987L129.315 26.0696H124.947L122.949 9.0474H127.887L128.662 19.2949L133.894 9.04456H138.093L139.365 19.3239L144.171 9.04693H149L140.368 26.0696Z" fill="#FFA400"/>
<path d="M96.2083 26.0669L89.766 12.0499L85.5236 26.0674H80.7314L87.5978 4H91.9655L98.0537 17.5879L102.307 4H107.097L100.338 26.0669H96.2083Z" fill="#FFA400"/>
<path d="M112.294 26.3219C107.062 26.3219 103.657 22.4446 104.244 17.5907V17.529C104.837 12.6723 109.225 8.73328 114.489 8.73328C119.754 8.73328 123.13 12.6106 122.539 17.4644V17.529C121.949 22.3829 117.559 26.3219 112.294 26.3219ZM117.811 17.529C118.114 15.0361 116.582 12.8546 113.934 12.8546C111.191 12.8546 109.294 14.9663 108.991 17.4564V17.5209C108.671 20.0191 110.212 22.1925 112.86 22.1925C115.602 22.1925 117.499 20.0808 117.803 17.5907L117.811 17.529Z" fill="#FFA400"/>
<path d="M32.511 26.0669L26.0658 12.0499L21.8234 26.0669H17.0312L23.8492 4H28.2686L34.3454 17.5879L38.6073 4H43.3994L36.6404 26.0669H32.511Z" fill="white"/>
<path d="M48.5941 26.3219C43.3618 26.3219 39.9569 22.4446 40.5442 17.5907V17.529C41.1343 12.6723 45.5243 8.73328 50.7889 8.73328C56.0534 8.73328 59.426 12.6106 58.8387 17.4644V17.529C58.2486 22.3829 53.8586 26.3219 48.5941 26.3219ZM54.1107 17.529C54.4164 15.0361 52.8844 12.8546 50.2362 12.8546C47.4941 12.8546 45.597 14.9744 45.2936 17.4644V17.529C44.9902 20.0191 46.5199 22.1925 49.1681 22.1925C51.9102 22.1925 53.8073 20.0808 54.1131 17.5907L54.1107 17.529Z" fill="white"/>
<path d="M78.5496 26.0696H74.2322L70.9858 15.6992L67.6749 26.0701H63.3817L58.1865 9.04742H63.0404L65.7531 19.2949L68.9339 9.04504H73.0643L76.284 19.3244L79.0585 9.04742H83.8183L78.5496 26.0696Z" fill="white"/>
<path d="M11.3371 9.05524C10.8738 9.05403 10.423 9.20521 10.0541 9.48549C9.6852 9.76577 9.41871 10.1596 9.2957 10.6063V10.6063C9.20784 10.9209 9.19406 11.2515 9.25544 11.5723C9.31681 11.8931 9.45167 12.1954 9.64944 12.4553C9.84721 12.7153 10.1025 12.9259 10.3953 13.0706C10.6881 13.2154 11.0105 13.2903 11.3371 13.2896H18.7817L20.0911 9.05809L11.3371 9.05524Z" fill="#FFA400"/>
<path d="M2.11715 15.4387C1.55565 15.4387 1.01714 15.6617 0.6201 16.0588C0.223057 16.4558 0 16.9943 0 17.5558C0 18.1173 0.223057 18.6558 0.6201 19.0529C1.01714 19.4499 1.55565 19.673 2.11715 19.673H16.7946L18.1039 15.4387H2.11715Z" fill="#FFA400"/>
<path d="M4.50322 21.825C4.21942 21.8155 3.9366 21.8632 3.67161 21.9653C3.40661 22.0673 3.16486 22.2216 2.96073 22.419C2.75661 22.6164 2.59428 22.8529 2.48342 23.1143C2.37256 23.3757 2.31543 23.6568 2.31543 23.9408C2.31543 24.2247 2.37256 24.5058 2.48342 24.7672C2.59428 25.0287 2.75661 25.2651 2.96073 25.4625C3.16486 25.6599 3.40661 25.8142 3.67161 25.9163C3.9366 26.0183 4.21942 26.066 4.50322 26.0565H14.8229L16.1294 21.825H4.50322Z" fill="#FFA400"/>
<path d="M62.7128 39.3813L60.5099 35.5254H58.6318V42.4776H60.4753V38.616L62.6781 42.4719H64.5562V35.5254H62.7128V39.3813ZM29.1293 40.4547H32.7892C32.7961 40.1113 32.7628 39.7682 32.69 39.4326C32.3102 37.9865 31.4452 37.2857 30.0499 37.2857C29.3175 37.2856 28.615 37.5758 28.0963 38.0928C27.8402 38.339 27.6381 38.6356 27.5028 38.964C27.3675 39.2924 27.3018 39.6453 27.3101 40.0004C27.3223 40.6769 27.5898 41.3238 28.0587 41.8115C28.3378 42.0933 28.6734 42.3126 29.0435 42.4551C29.4136 42.5976 29.8096 42.66 30.2056 42.6381C31.1313 42.6381 31.974 42.1016 32.6206 41.0282H30.9913C30.9074 41.1466 30.798 41.2446 30.6713 41.3152C30.5445 41.3858 30.4036 41.4271 30.2587 41.436H30.1861C29.9698 41.4303 29.758 41.3723 29.5689 41.267C29.3938 41.1678 29.2468 41.0257 29.1417 40.854C29.0685 40.7369 29.0193 40.6066 28.9969 40.4704L29.1293 40.4547ZM28.9788 39.4487C28.9927 39.3054 29.0446 39.1683 29.1293 39.0518C29.2413 38.9008 29.391 38.7819 29.5633 38.7069C29.7357 38.6319 29.9248 38.6035 30.1116 38.6245C30.3271 38.6288 30.5374 38.691 30.7207 38.8045C30.8258 38.8712 30.9169 38.9578 30.9889 39.0594C31.0657 39.1742 31.1033 39.3108 31.0962 39.4487H28.9788ZM18.9464 35.5776H17.1024V37.4557H16.585V38.6953H17.1024V39.7848C17.1024 41.0192 17.5131 41.8187 18.3582 42.2293C18.8044 42.3842 19.2731 42.4644 19.7454 42.4667H20.4732V41.2566C19.499 41.2001 19.274 41.0368 19.188 40.9185C19.0323 40.7101 18.9476 40.4571 18.9464 40.1969V38.6972H20.4732V37.4576H18.9464V35.5776ZM53.4798 40.3374L52.5915 37.469H51.2228L50.3683 40.308L49.5954 37.469H48.0201L49.5337 42.4786H50.9612L51.8898 39.9913L52.8128 42.4786H54.2646L55.7966 37.469H54.2617L53.4798 40.3374ZM39.9081 39.3822L37.7052 35.5263H35.8266V42.4786H37.6701V38.616L39.8729 42.4719H41.7511V35.5254H39.9076L39.9081 39.3822ZM24.9116 37.2734H24.7668C24.4726 37.2848 24.1849 37.3634 23.9258 37.5033C23.6667 37.6433 23.4432 37.8407 23.2723 38.0805L23.0924 38.2951V35.3402H21.3529V42.4776H23.0914V39.7165C23.0903 39.6459 23.0985 39.5755 23.1156 39.5071C23.1427 39.3118 23.2391 39.1327 23.3873 39.0027C23.5355 38.8726 23.7255 38.8002 23.9227 38.7988H24.0462C24.1137 38.8006 24.181 38.8077 24.2474 38.8201C24.4536 38.8963 24.6271 39.0411 24.739 39.2302C24.8509 39.4193 24.8943 39.6411 24.8618 39.8584V42.4771H26.5818V39.1501C26.5788 38.9233 26.5518 38.6975 26.5011 38.4764C26.4189 38.1213 26.2148 37.8063 25.9243 37.5862C25.6338 37.3661 25.2752 37.2549 24.9111 37.272L24.9116 37.2734ZM120.333 37.4372H120.065C119.633 37.4573 119.22 37.6216 118.892 37.9039L118.729 38.0406V35.5159H116.885V42.4681H118.734V41.9772L118.919 42.133C119.283 42.4409 119.746 42.6066 120.223 42.5996C120.546 42.5979 120.866 42.5379 121.167 42.4225C122.085 41.9611 122.533 41.1374 122.533 39.9111V39.8494C122.54 39.3887 122.425 38.9345 122.201 38.532C122.013 38.2023 121.742 37.9283 121.413 37.7379C121.085 37.5475 120.713 37.4475 120.333 37.4481V37.4372ZM120.577 40.0535C120.588 40.3131 120.551 40.5724 120.467 40.8184C120.412 40.9438 120.326 41.0532 120.217 41.1362C120.109 41.2193 119.98 41.2733 119.845 41.2931C119.709 41.3175 119.57 41.3175 119.434 41.2931C118.927 41.1982 118.68 40.7566 118.68 40.016C118.675 39.756 118.702 39.4964 118.761 39.2431C118.795 39.1138 118.866 38.9972 118.965 38.908C119.141 38.7838 119.351 38.7154 119.566 38.7119H119.7C119.754 38.7119 119.813 38.7252 119.88 38.728C120.028 38.7506 120.165 38.8167 120.275 38.9179C120.497 39.1938 120.606 39.5441 120.578 39.8973L120.577 40.0535ZM126.749 38.0411L126.583 37.9043C126.262 37.6133 125.846 37.4476 125.413 37.4377H125.145C124.765 37.448 124.393 37.5543 124.065 37.7466C123.736 37.9389 123.462 38.211 123.267 38.5377C123.042 38.938 122.927 39.3908 122.934 39.8499V39.9116C122.934 41.1379 123.385 41.9616 124.311 42.4278C124.611 42.5401 124.928 42.5983 125.248 42.5996C125.725 42.6066 126.188 42.4409 126.552 42.133L126.579 42.1116L126.737 41.9478V42.47H128.586V37.4571H126.742L126.749 38.0411ZM126.059 41.2983C125.899 41.3343 125.734 41.3343 125.574 41.2983C125.448 41.2755 125.33 41.2212 125.231 41.1405C125.132 41.0598 125.055 40.9554 125.007 40.8369C124.924 40.5901 124.886 40.33 124.897 40.0697V39.9087C124.886 39.5761 124.98 39.2484 125.165 38.9721C125.251 38.8641 125.372 38.7885 125.506 38.7575C125.594 38.7356 125.684 38.724 125.774 38.7228H125.895C126.043 38.7203 126.189 38.7542 126.32 38.8216C126.452 38.889 126.565 38.9878 126.649 39.1093C126.744 39.2517 126.778 39.4069 126.794 40.027C126.794 40.7737 126.547 41.2029 126.058 41.2969L126.059 41.2983ZM76.2849 40.3379L75.3995 37.4695H74.0313L73.1767 40.3085L72.4038 37.4695H70.8286L72.3421 42.479H73.7697L74.6983 39.9918L75.6212 42.479H77.073L78.6051 37.4695H77.0702L76.2849 40.3379ZM133.044 37.2739H132.901C132.607 37.2848 132.318 37.3633 132.059 37.5032C131.799 37.6431 131.575 37.8408 131.404 38.0809L131.227 38.2955V37.4638H129.486V42.4814H131.227V39.7203C131.226 39.6497 131.234 39.5793 131.251 39.5109C131.278 39.3154 131.374 39.1361 131.522 39.006C131.671 38.8759 131.861 38.8036 132.058 38.8026H132.182C132.249 38.8044 132.317 38.8115 132.383 38.8239C132.589 38.9001 132.763 39.0449 132.875 39.234C132.986 39.4231 133.03 39.6449 132.997 39.8622V42.4809H134.717V39.1539C134.714 38.9273 134.688 38.7016 134.639 38.4802C134.557 38.1239 134.352 37.8078 134.06 37.587C133.769 37.3662 133.409 37.2547 133.043 37.272L133.044 37.2739ZM111.138 37.1827C110.614 37.1788 110.097 37.3013 109.63 37.5397C109.193 37.7669 108.827 38.1088 108.57 38.5286C108.314 38.9485 108.176 39.4304 108.173 39.9225V40.0032C108.172 40.5062 108.315 40.9988 108.586 41.4227C108.857 41.8323 109.228 42.1664 109.664 42.3939C110.099 42.6215 110.585 42.735 111.076 42.724C111.797 42.733 112.498 42.4879 113.056 42.0318C113.347 41.7954 113.584 41.4993 113.751 41.1635C113.917 40.8277 114.01 40.46 114.022 40.0853V39.8005C114.008 39.3483 113.879 38.9071 113.647 38.5187C113.373 38.1058 112.999 37.7681 112.561 37.5366C112.123 37.3051 111.634 37.187 111.138 37.1932V37.1827ZM111.929 40.7908C111.874 40.9515 111.765 41.0885 111.621 41.1792C111.477 41.2698 111.307 41.3089 111.138 41.2898L110.845 41.2684C110.384 41.1692 110.158 40.7799 110.158 40.1067V39.8385C110.155 39.6037 110.197 39.3705 110.282 39.1515C110.336 38.9937 110.44 38.858 110.579 38.7653C110.717 38.6726 110.883 38.6282 111.049 38.6388H111.111C111.733 38.6388 112.047 39.0841 112.047 39.9804C112.05 40.2585 112.01 40.5353 111.929 40.8013V40.7908ZM140.669 37.4581H138.723L137.432 39.4197V35.5268H135.589V42.479H137.432V40.5326L138.723 42.479H140.679L139.034 39.9728L140.669 37.4581ZM106.345 35.58H104.501V37.4581H103.982V38.6977H104.497V39.7872C104.497 41.0216 104.91 41.821 105.756 42.2317C106.202 42.387 106.67 42.4672 107.143 42.4691H107.864V41.2589C106.888 41.2024 106.662 41.0391 106.579 40.9209C106.423 40.7126 106.337 40.4597 106.335 40.1993V38.6995H107.865V37.46H106.337L106.345 35.58ZM86.682 40.3389L85.78 37.4704H84.4117L83.5572 40.3094L82.7843 37.4704H81.2081L82.7216 42.48H84.1516L85.0802 39.9928L86.0031 42.48H87.452L88.9841 37.4704H87.4492L86.682 40.3389ZM98.1795 40.3683L97.3103 37.4723H95.2688L97.3639 42.509L97.3264 42.5564C97.2452 42.6537 97.1555 42.7435 97.0582 42.8247C96.7404 43.0364 96.3666 43.1485 95.9847 43.1465V44.3567H96.4059C96.7445 44.3144 97.0774 44.2348 97.3986 44.1193C97.9193 43.8891 98.384 43.5487 98.7606 43.1216C99.1372 42.6945 99.4168 42.1909 99.58 41.6454L101.104 37.4595H99.0944L98.1795 40.3683Z" fill="white"/>
<path d="M45.4033 41.4393H45.3306C45.1143 41.4336 44.9025 41.3756 44.7135 41.2703C44.5394 41.1696 44.3928 41.0278 44.2862 40.8573C44.2126 40.7404 44.1634 40.61 44.1414 40.4737H47.9299C47.9368 40.1303 47.9035 39.7872 47.8307 39.4515C47.4509 38.0054 46.5859 37.3052 45.1906 37.3052C44.4582 37.305 43.7557 37.5952 43.237 38.1123C42.9814 38.3588 42.7796 38.6555 42.6443 38.9838C42.509 39.3121 42.4431 39.6648 42.4508 40.0198C42.4619 40.6971 42.7307 41.3447 43.2023 41.831C43.4811 42.1131 43.8166 42.3328 44.1868 42.4753C44.5569 42.6178 44.9532 42.6799 45.3491 42.6575C46.2778 42.6575 47.1176 42.1211 47.7642 41.0476H46.1353C46.0498 41.163 45.9398 41.2579 45.8133 41.3256C45.6867 41.3934 45.5467 41.4322 45.4033 41.4393V41.4393ZM44.2738 39.0698C44.3858 38.9188 44.5355 38.7999 44.7079 38.7249C44.8802 38.6499 45.0693 38.6215 45.2561 38.6426C45.472 38.6465 45.6827 38.7095 45.8652 38.8249C45.9708 38.8898 46.062 38.9756 46.1334 39.0769C46.2102 39.1918 46.2478 39.3283 46.2407 39.4662H44.129C44.1412 39.3236 44.191 39.1868 44.2734 39.0698H44.2738Z" fill="white"/>
<path d="M68.2103 41.4289H68.1538C67.9365 41.4236 67.7237 41.3656 67.5338 41.2599C67.3598 41.159 67.2132 41.0172 67.1065 40.8468C67.0332 40.729 66.9848 40.5975 66.9641 40.4604H70.7526C70.7581 40.1178 70.7248 39.7757 70.6534 39.4406C70.2698 37.9945 69.4057 37.2943 68.0133 37.2943C67.2801 37.2934 66.5766 37.5837 66.0573 38.1013C65.8017 38.3478 65.5999 38.6446 65.4646 38.9729C65.3293 39.3011 65.2634 39.6539 65.2711 40.0089C65.2816 40.6855 65.5505 41.3324 66.0226 41.8172C66.3012 42.0997 66.6367 42.3198 67.0069 42.4627C67.377 42.6056 67.7733 42.6681 68.1695 42.6461C69.0981 42.6461 69.9379 42.1097 70.5845 41.0362H68.9557C68.8689 41.1534 68.7568 41.2496 68.6278 41.3176C68.4987 41.3855 68.356 41.4236 68.2103 41.4289V41.4289ZM67.0809 39.0594C67.1928 38.9084 67.3425 38.7894 67.5149 38.7145C67.6873 38.6395 67.8763 38.6111 68.0631 38.6321C68.2788 38.6352 68.4895 38.6974 68.6722 38.812C68.778 38.878 68.8692 38.9647 68.9405 39.067C69.0172 39.1818 69.0548 39.3183 69.0478 39.4563H66.9361C66.9498 39.3138 66.9997 39.1772 67.0809 39.0594V39.0594Z" fill="white"/>
<path d="M92.9316 37.4708V38.0557L92.7678 37.9161C92.4446 37.6264 92.029 37.461 91.5951 37.4494H91.3269C90.9466 37.46 90.5751 37.5663 90.2468 37.7586C89.9185 37.9509 89.644 38.2229 89.4488 38.5494C89.2249 38.951 89.1103 39.4043 89.1164 39.864V39.9229C89.1164 41.152 89.5646 41.9728 90.4904 42.439C90.7899 42.5519 91.107 42.6108 91.4271 42.6133C91.9037 42.6191 92.3665 42.4534 92.7312 42.1466L92.7606 42.1224L92.9164 41.9586V42.4808H94.765V37.4708H92.9316ZM92.2474 41.2973C92.0887 41.3346 91.9234 41.3346 91.7646 41.2973C91.6384 41.2747 91.52 41.2205 91.4204 41.1398C91.3208 41.0591 91.2432 40.9545 91.1949 40.8358C91.1116 40.5898 91.0742 40.3305 91.0848 40.071V39.9072C91.0753 39.5748 91.169 39.2475 91.353 38.9705C91.4395 38.8618 91.5606 38.786 91.6962 38.7559C91.7843 38.736 91.8742 38.7252 91.9645 38.7236H92.0879C92.2354 38.7204 92.3813 38.754 92.5125 38.8215C92.6437 38.889 92.7559 38.9882 92.839 39.1101C92.9339 39.2497 92.9676 39.4054 92.9838 40.0278C92.9823 40.7765 92.7355 41.2061 92.2474 41.2973Z" fill="white"/>
</svg>
